<svg xmlns="http://www.w3.org/2000/svg" viewBox="0 0 513.36 513.04" data-guides="{&quot;vertical&quot;:[],&quot;horizontal&quot;:[]}"><path fill="#21243d" stroke="none" fill-opacity="1" stroke-width="1" stroke-opacity="1" id="tSvg122f2fb1e04" title="Path 1" d="M232.3594 1.641C152.3594 9.941 82.2594 53.441 39.6594 121.241C-9.0406 198.641 -11.9406 298.941 32.1594 379.041C52.1594 415.441 80.8594 446.641 116.2594 470.341C140.0594 486.241 176.2594 501.441 203.8594 506.941C225.2594 511.241 233.3594 512.041 256.8594 512.041C280.4594 512.041 290.1594 511.041 310.0594 506.941C398.0594 488.541 471.5594 422.741 499.8594 336.741C509.0594 308.941 512.3594 287.641 512.3594 256.541C512.3594 226.441 509.1594 205.241 500.7594 179.041C488.3594 140.041 467.7594 106.241 438.5594 76.641C398.6594 36.241 349.2594 11.341 292.3594 2.941C280.0594 1.141 244.5594 0.341 232.3594 1.641ZM338.3594 222.541C315.3594 245.541 292.3594 268.541 269.3594 291.541C265.1927 291.541 261.026 291.541 256.8594 291.541C252.6927 291.541 248.526 291.541 244.3594 291.541C221.3594 268.541 198.3594 245.541 175.3594 222.541C152.3594 199.541 129.3594 176.541 106.3594 153.541C156.526 153.541 206.6927 153.541 256.8594 153.541C307.026 153.541 357.1927 153.541 407.3594 153.541C384.3594 176.541 361.3594 199.541 338.3594 222.541ZM142.0594 307.741C126.326 323.5077 110.5927 339.2743 94.8594 355.041C94.8594 323.541 94.8594 292.041 94.8594 260.541C94.8594 229.041 94.8594 197.541 94.8594 166.041C110.5927 181.8077 126.326 197.5743 142.0594 213.341C157.826 229.0743 173.5927 244.8077 189.3594 260.541C173.5927 276.2743 157.826 292.0077 142.0594 307.741ZM418.8594 260.741C418.8594 292.1743 418.8594 323.6077 418.8594 355.041C403.126 339.3077 387.3927 323.5743 371.6594 307.841C355.8927 292.0743 340.126 276.3077 324.3594 260.541C340.026 244.8743 355.6927 229.2077 371.3594 213.541C397.1594 187.741 418.4594 166.541 418.5594 166.541C418.7594 166.541 418.8594 208.941 418.8594 260.741ZM219.6594 290.741C225.3927 296.5077 231.126 302.2743 236.8594 308.041C243.526 308.041 250.1927 308.041 256.8594 308.041C263.526 308.041 270.1927 308.041 276.8594 308.041C282.5927 302.2743 288.326 296.5077 294.0594 290.741C303.5594 281.341 311.8594 273.541 312.3594 273.541C312.9594 273.541 332.7594 292.841 356.3594 316.541C370.6927 330.8743 385.026 345.2077 399.3594 359.541C351.8594 359.541 304.3594 359.541 256.8594 359.541C209.3594 359.541 161.8594 359.541 114.3594 359.541C128.6927 345.2077 143.026 330.8743 157.3594 316.541C180.9594 292.841 200.7594 273.541 201.3594 273.541C201.8594 273.541 210.1594 281.341 219.6594 290.741Z"/><defs/></svg>