<svg xmlns="http://www.w3.org/2000/svg" viewBox="0 0 257.42 257.48" data-guides="{&quot;vertical&quot;:[],&quot;horizontal&quot;:[]}"><path fill="#21243d" stroke="none" fill-opacity="1" stroke-width="1" stroke-opacity="1" id="tSvg102b5923ebf" title="Path 2" d="M114.1999 1.9C73.5999 6.1 36.1999 31.4 16.2999 68.1C-4.1001 105.6 -4.1001 152 16.2999 189.5C40.7999 234.6 89.7999 260.8 140.3999 255.9C170.5999 252.9 195.4999 241.6 217.0999 220.9C258.4999 181.1 268.3999 118.4 241.0999 68.1C220.7999 30.8 183.8999 6.1 141.7999 1.9C130.2999 0.7 125.8999 0.7 114.1999 1.9ZM194.2999 77.3C195.5999 79.4 194.7999 84.4 184.1999 134.8C177.7999 165.2 172.1999 190.9 171.5999 192C169.9999 194.9 165.9999 197.1 163.2999 196.4C161.8999 196.1 155.4999 191.8 148.9999 187C142.4999 182.2 134.8999 176.6 131.9999 174.5C130.2666 173.2334 128.5332 171.9667 126.7999 170.7C123.4332 173.9 120.0666 177.1 116.6999 180.3C110.9999 185.7 105.7999 189.8 104.6999 189.8C102.2999 189.8 102.1999 188.8 104.1999 171.3C104.9999 164.1 105.6999 157.6 105.6999 156.8C105.6999 156 119.8999 142.5 137.1999 126.8C155.0999 110.5 168.5999 97.5 168.5999 96.5C168.6999 94.1 170.3999 93.1 125.2999 121.6C112.3332 129.8 99.3666 138 86.3999 146.2C80.5999 144.2667 74.7999 142.3334 68.9999 140.4C59.4999 137.2 50.9999 134 50.1999 133.2C48.1999 131.2 48.2999 128.4 50.4999 126.6C51.8999 125.4 160.5999 83.9 182.4999 76.2C189.4999 73.8 192.0999 74 194.2999 77.3Z" style=""/><defs/></svg>