<svg xmlns="http://www.w3.org/2000/svg" viewBox="0 0 257.05 257.10" data-guides="{&quot;vertical&quot;:[],&quot;horizontal&quot;:[]}"><path fill="#21243d" stroke="none" fill-opacity="1" stroke-width="1" stroke-opacity="1" id="tSvg4cde50eacc" title="Path 3" d="M110.4249 2.0727C80.5249 6.9727 56.4249 19.3727 36.4249 40.1727C19.4249 57.9727 8.6249 78.4727 3.3249 102.8727C0.2249 117.2727 0.2249 139.8727 3.3249 154.2727C8.6249 178.6727 19.4249 199.1727 36.4249 216.9727C54.4249 235.6727 76.9249 248.1727 102.7249 253.7727C117.2249 256.8727 139.8249 256.8727 154.3249 253.7727C180.1249 248.1727 202.6249 235.6727 220.6249 216.9727C237.6249 199.1727 248.4249 178.6727 253.7249 154.2727C256.8249 139.8727 256.8249 117.2727 253.7249 102.7727C242.8249 52.5727 204.4249 14.0727 154.7249 3.5727C141.9249 0.8727 121.8249 0.1727 110.4249 2.0727ZM140.2249 90.0727C142.4249 92.5727 142.5249 93.4727 142.5249 109.0727C142.5249 131.5727 143.9249 134.3727 150.9249 126.4727C155.9249 120.9727 160.8249 113.1727 166.6249 101.5727C169.2249 96.1727 172.1249 91.5727 173.0249 91.1727C175.7249 90.1727 203.1249 90.4727 205.9249 91.5727C211.2249 93.5727 207.9249 101.3727 193.6249 121.0727C184.0249 134.0727 182.5249 136.5727 182.5249 139.0727C182.5249 139.9727 186.9249 145.2727 192.4249 150.8727C208.2249 167.2727 210.9249 172.1727 206.5249 176.5727C204.7249 178.3727 203.2249 178.5727 190.1249 178.5727C182.1249 178.5727 174.4249 178.0727 172.8249 177.4727C171.3249 176.8727 165.7249 172.1727 160.4249 166.9727C154.2249 160.8727 150.0249 157.5727 148.6249 157.5727C145.9249 157.5727 143.9249 161.7727 142.9249 169.4727C141.7249 178.4727 137.1249 180.0727 120.2249 177.4727C94.9249 173.5727 78.7249 156.7727 55.9249 111.4727C51.9249 103.2727 48.5249 95.7727 48.5249 94.7727C48.5249 91.0727 50.4249 90.5727 64.6249 90.5727C76.2249 90.5727 78.6249 90.8727 80.3249 92.2727C81.5249 93.2727 85.1249 99.4727 88.4249 106.0727C98.2249 125.7727 107.5249 135.1727 109.6249 127.5727C110.7249 123.4727 110.6249 101.8727 109.4249 99.2727C108.8249 97.9727 106.8249 96.0727 104.9249 95.2727C101.2249 93.4727 100.6249 91.5727 103.0249 89.5727C105.8249 87.2727 111.0249 86.6727 124.5249 87.0727C137.6249 87.3727 138.0249 87.4727 140.2249 90.0727Z"/><defs/></svg>