<svg xmlns="http://www.w3.org/2000/svg" viewBox="0 0 257.38 257.50" data-guides="{&quot;vertical&quot;:[],&quot;horizontal&quot;:[]}"><path fill="#21243d" stroke="none" fill-opacity="1" stroke-width="1" stroke-opacity="1" id="tSvg137fe3c41f9" title="Path 4" d="M114.1999 1.8999C86.8999 4.6999 60.9999 16.9999 40.2999 36.6999C0.7999 74.5999 -9.9001 131.7999 12.9999 182.9999C13.8665 184.9332 14.7332 186.8666 15.5999 188.7999C13.1332 200.0332 10.6665 211.2666 8.1999 222.4999C4.1999 241.0999 0.9999 256.3999 0.9999 256.4999C1.0999 256.4999 16.3999 253.2999 34.9999 249.2999C46.2332 246.8332 57.4665 244.3666 68.6999 241.8999C70.6332 242.7666 72.5665 243.6332 74.4999 244.4999C106.8999 258.9999 142.0999 260.2999 174.2999 248.2999C206.9999 235.9999 235.8999 207.0999 248.1999 174.3999C261.1999 139.4999 258.5999 100.2999 241.0999 68.0999C220.7999 30.7999 183.8999 6.0999 141.7999 1.8999C130.2999 0.6999 125.8999 0.6999 114.1999 1.8999ZM107.7999 65.2999C115.5999 76.2999 122.1999 85.7999 122.3999 86.4999C122.6999 87.1999 119.8999 92.3999 116.2999 98.1999C112.5999 103.9999 109.3999 109.3999 109.0999 110.0999C108.3999 112.0999 119.4999 126.4999 127.3999 133.7999C131.1999 137.3999 137.0999 142.1999 140.3999 144.4999C142.3999 145.8999 144.3999 147.2999 146.3999 148.6999C150.3665 146.2332 154.3332 143.7666 158.2999 141.2999C164.7999 137.2999 170.6999 134.2999 171.1999 134.6999C171.7999 135.1999 181.7999 142.3999 193.5999 150.7999C200.7332 155.8999 207.8665 160.9999 214.9999 166.0999C209.6999 171.3332 204.3999 176.5666 199.0999 181.7999C179.3999 201.1999 175.7999 203.2999 162.1999 203.2999C153.0999 203.2999 153.0999 203.2999 141.8999 197.5999C121.3999 186.9999 111.6999 180.0999 95.7999 164.4999C80.2999 149.2999 69.7999 134.7999 59.4999 114.5999C54.3999 104.4999 54.2999 104.0999 54.2999 95.2999C54.1999 81.4999 56.1999 77.9999 75.4999 58.5999C87.8999 45.9999 91.3999 43.0999 92.3999 43.9999C92.9999 44.6999 99.9999 54.2999 107.7999 65.2999Z"/><path fill="#21243d" stroke="none" fill-opacity="1" stroke-width="1" stroke-opacity="1" id="tSvg72ebd1f2f8" title="Path 5" d="M79.9999 78.1693C66.0999 92.6693 65.5999 98.4693 76.3999 117.5693C85.1999 132.9693 93.1999 143.4693 105.1999 155.5693C117.2999 167.7693 126.5999 175.0693 140.1999 182.8693C156.2999 192.0693 163.5999 193.6693 171.4999 189.5693C174.1999 188.1693 190.6999 172.1693 190.6999 170.9693C190.6999 170.0693 170.8999 155.9693 169.5999 155.9693C168.9999 155.9693 165.4999 157.9693 161.6999 160.3693C152.3999 166.4693 148.0999 167.6693 142.0999 165.9693C136.7999 164.4693 126.3999 156.8693 116.2999 147.0693C107.7999 138.8693 95.0999 122.1693 94.1999 117.9693C93.0999 112.7693 94.4999 107.9693 99.7999 99.2693C102.4999 94.7693 104.6999 90.8693 104.6999 90.5693C104.6999 90.0693 89.5999 68.9693 89.1999 68.9693C89.0999 68.9693 84.9999 73.1693 79.9999 78.1693Z"/><defs/></svg>